<?xml version="1.0" encoding="utf-8"?>
<!-- Generator: Adobe Illustrator 28.2.0, SVG Export Plug-In . SVG Version: 6.00 Build 0)  -->
<svg version="1.1" id="Ebene_1" xmlns="http://www.w3.org/2000/svg" xmlns:xlink="http://www.w3.org/1999/xlink" x="0px" y="0px"
	 viewBox="88 84 1244 400" xml:space="preserve">
<style type="text/css">
	.st0{fill:#C8BEA7;}
	.st1{fill:#77C8D2;}
</style>
<g>
	<g>
		<path class="st0" d="M447.2,308.4H344.5v16.3h22.4c-6.1,7.5-9.7,17.1-9.7,27.5v51.6c0,29.5-24,53.5-53.5,53.5s-53.5-24-53.5-53.5
			v-51.6c0-10.4-3.7-20-9.7-27.5h14.8h70.9v-16.3h-70.9h-55.5c-9.7,0-17.6-7.9-17.6-17.6s7.9-17.6,17.6-17.6s17.6,7.9,17.6,17.6
			h16.3c0-18.7-15.2-33.9-33.9-33.9s-33.9,15.2-33.9,33.9c0,6.4,1.8,12.4,4.9,17.5c-30.6-1.7-55-27.1-55-58.1
			c0-32.1,26.1-58.3,58.3-58.3s58.3,26.1,58.3,58.3h16.3c0-41.1-33.5-74.6-74.6-74.6c-41.1,0-74.6,33.5-74.6,74.6
			c0,41.1,33.5,74.6,74.6,74.6h25.8h6.6c15.1,0,27.5,12.3,27.5,27.5v51.6c0,38.5,31.3,69.8,69.8,69.8s69.8-31.3,69.8-69.8v-51.6
			c0-15.1,12.3-27.5,27.5-27.5h46.3c10.4,0,18.8,8.4,18.8,18.8c0,10.4-8.4,18.8-18.8,18.8s-18.8-8.4-18.8-18.8h-16.3
			c0,19.4,15.7,35.1,35.1,35.1s35.1-15.7,35.1-35.1S466.6,308.4,447.2,308.4z"/>
		<rect x="370.2" y="265" class="st0" width="164.2" height="16.3"/>
		<path class="st0" d="M311.8,444.6v-18.4c17.4-3.8,30.5-19.3,30.5-37.8h-16.3c0,12.3-10,22.4-22.4,22.4s-22.4-10-22.4-22.4H265
			c0,18.5,13.1,34.1,30.5,37.8v18.4H311.8z"/>
		<g>
			<path class="st0" d="M617.9,262.9c8.5,0,15.4,2.6,20.9,7.9c5.5,5.3,8.2,12.2,8.2,20.8v55.2h-30v-46.5c0-3.7-1.1-6.6-3.4-8.7
				c-2.3-2-5.1-3-8.5-3c-3.4,0-6.3,1.1-8.7,3.2c-2.4,2.1-3.6,4.9-3.6,8.3v46.7h-30v-82h28.9v1v9.7c2.5-3.7,6.2-6.8,11.1-9.1
				C607.7,264,612.7,262.9,617.9,262.9z"/>
			<path class="st0" d="M703.3,262.4c13.6,0,24.5,4.2,32.6,12.5c8.1,8.4,12.2,18.6,12.2,30.8c0,12.2-4.1,22.5-12.2,30.9
				c-8.1,8.4-19,12.6-32.6,12.6c-13.9,0-24.8-4.2-33-12.5c-8.1-8.4-12.2-18.7-12.2-31c0-12.2,4.1-22.5,12.2-30.8
				C678.5,266.5,689.5,262.4,703.3,262.4z M715.2,293.2c-3.2-3.3-7.2-4.9-11.9-4.9c-4.7,0-8.7,1.6-11.9,4.9
				c-3.2,3.3-4.8,7.5-4.8,12.5c0,5.2,1.6,9.4,4.8,12.7c3.2,3.3,7.1,4.9,11.9,4.9c4.7,0,8.7-1.6,11.9-4.9c3.2-3.3,4.8-7.5,4.8-12.7
				C720,300.7,718.4,296.5,715.2,293.2z"/>
			<path class="st0" d="M809.8,262.9c2,0,3.9,0.3,5.8,0.8v24.2c-2.2-0.8-4.9-1.2-8.2-1.2c-4.9,0-9.1,1.2-12.4,3.6
				c-3.4,2.4-5,6-5,10.9v45.5h-30v-82h29v1.3v9.1c2.1-3.8,5-6.9,8.7-9.1C801.2,264,805.3,262.9,809.8,262.9z"/>
			<path class="st0" d="M913.9,346.8H885v-1.3v-9.7c-5.6,8.8-14.1,13.2-25.6,13.2s-20.7-4.1-27.9-12.4c-7.2-8.3-10.7-18.6-10.7-30.8
				c0-12.1,3.6-22.3,10.7-30.5c7.1-8.2,16.4-12.4,27.9-12.4c10.9,0,19,3.6,24.4,10.9v-7.6v-32.6h30V346.8z M868.5,288.3
				c-4.7,0-8.8,1.6-12.1,4.9c-3.4,3.3-5,7.5-5,12.5c0,5.2,1.6,9.4,4.9,12.7s7.4,4.9,12.2,4.9s8.9-1.6,12.1-4.9
				c3.2-3.3,4.9-7.5,4.9-12.7c0-5.1-1.6-9.2-4.9-12.5C877.4,289.9,873.4,288.3,868.5,288.3z"/>
			<path class="st0" d="M1043.2,347h-33.8l-13-44l-13.2,44h-33.8l-25.9-82.1h32.6l11.2,49.3c0.5,3.2,0.9,5.1,1,5.8h0.2
				c0.2-1.9,0.6-3.8,1.2-5.8l13-49.3h27.4l13,49.3c0.3,1.2,0.7,3.1,1,5.8h0.3c0.3-2.6,0.6-4.6,0.8-5.8l11.4-49.3h32.6L1043.2,347z"
				/>
			<path class="st0" d="M1082.7,234.1c2.8-2.7,6.6-4,11.3-4c4.7,0,8.5,1.3,11.3,4c2.8,2.7,4.2,5.8,4.2,9.3c0,3.6-1.4,6.8-4.1,9.4
				c-2.7,2.6-6.5,4-11.4,4c-4.7,0-8.5-1.3-11.3-4c-2.8-2.6-4.2-5.8-4.2-9.4C1078.5,239.9,1079.9,236.8,1082.7,234.1z M1109,346.8
				h-30v-82h30V346.8z"/>
			<path class="st0" d="M1184.7,262.9c8.5,0,15.4,2.6,20.9,7.9c5.5,5.3,8.2,12.2,8.2,20.8v55.2h-30v-46.5c0-3.7-1.1-6.6-3.4-8.7
				c-2.3-2-5.1-3-8.5-3c-3.4,0-6.3,1.1-8.7,3.2c-2.4,2.1-3.6,4.9-3.6,8.3v46.7h-30v-82h28.9v1v9.7c2.5-3.7,6.2-6.8,11.1-9.1
				C1174.5,264,1179.5,262.9,1184.7,262.9z"/>
			<path class="st0" d="M1317.9,346.8h-28.9v-1.3v-9.7c-5.6,8.8-14.1,13.2-25.6,13.2c-11.4,0-20.7-4.1-27.9-12.4
				c-7.2-8.3-10.7-18.6-10.7-30.8c0-12.1,3.6-22.3,10.7-30.5c7.1-8.2,16.4-12.4,27.9-12.4c10.9,0,19,3.6,24.4,10.9v-7.6v-32.6h30
				V346.8z M1272.6,288.3c-4.7,0-8.8,1.6-12.1,4.9c-3.4,3.3-5,7.5-5,12.5c0,5.2,1.6,9.4,4.9,12.7s7.4,4.9,12.2,4.9
				c4.8,0,8.9-1.6,12.1-4.9c3.2-3.3,4.9-7.5,4.9-12.7c0-5.1-1.6-9.2-4.9-12.5C1281.5,289.9,1277.4,288.3,1272.6,288.3z"/>
		</g>
	</g>
	<g>
		<path class="st1" d="M577.9,168.3c0,5.4-4.4,9.8-9.8,9.8h-293c-18.9,0-34.2-15.3-34.2-34.2s15.3-34.2,34.2-34.2
			s34.2,15.3,34.2,34.2h16.3c0-27.8-22.7-50.5-50.5-50.5c-27.9,0-50.5,22.7-50.5,50.5c0,27.9,22.7,50.5,50.5,50.5h293
			c14.4,0,26.1-11.7,26.1-26.1H577.9z"/>
		<path class="st1" d="M295.6,237.8h179.8v-16.3H295.6c-21.3,0-38.7,17.4-38.7,38.7s17.4,38.7,38.7,38.7s38.7-17.4,38.7-38.7H318
			c0,12.3-10,22.4-22.4,22.4c-12.3,0-22.4-10-22.4-22.4C273.2,247.9,283.3,237.8,295.6,237.8z"/>
		<g>
			<path class="st1" d="M503,386.2c11.9,0,21.9,4,30,12.1c8.1,8.1,12.2,18.4,12.2,30.9c0,3.8-0.2,7.1-0.5,9.7h-56.4
				c0.9,3.7,3,6.8,6.3,9.2c3.4,2.4,7.6,3.6,12.6,3.6c7.5,0,14-2.8,19.5-8.2l13,16.5c-9.6,9-21.5,13.5-35.8,13.5
				c-13.4,0-24.3-4.3-32.7-12.8s-12.6-18.9-12.6-31.2c0-12.2,4.1-22.5,12.4-30.8C479.3,390.4,490,386.2,503,386.2z M503.2,407
				c-4.6,0-8.3,1.4-11.1,4.3c-2.8,2.9-4.3,6.2-4.4,10.1h30.5c0-4.3-1.4-7.7-4.3-10.4C511.1,408.3,507.5,407,503.2,407z"/>
			<path class="st1" d="M593.4,388.6h15.5v20.8h-15.5v61.2h-30.2v-61.2h-11.4v-20.8h11.4v-22.9h30.2V388.6z"/>
			<path class="st1" d="M624.3,357.9c2.8-2.7,6.6-4,11.3-4c4.7,0,8.5,1.3,11.3,4c2.8,2.7,4.2,5.8,4.2,9.3c0,3.6-1.4,6.8-4.1,9.4
				c-2.7,2.6-6.5,4-11.4,4c-4.7,0-8.5-1.3-11.3-4c-2.8-2.6-4.2-5.8-4.2-9.4C620.1,363.7,621.5,360.6,624.3,357.9z M650.6,470.6h-30
				v-82h30V470.6z"/>
			<path class="st1" d="M727,470.6l-25.7-42.2v42.2h-30V357.3h30v66.1l24.9-34.8h35.1l-29.5,36.9l30.8,45H727z"/>
			<path class="st1" d="M807.3,386.2c11.9,0,21.9,4,30,12.1c8.1,8.1,12.2,18.4,12.2,30.9c0,3.8-0.2,7.1-0.5,9.7h-56.4
				c0.9,3.7,3,6.8,6.3,9.2c3.4,2.4,7.6,3.6,12.6,3.6c7.5,0,14-2.8,19.5-8.2l13,16.5c-9.6,9-21.5,13.5-35.8,13.5
				c-13.4,0-24.3-4.3-32.7-12.8c-8.4-8.5-12.6-18.9-12.6-31.2c0-12.2,4.1-22.5,12.4-30.8C783.5,390.4,794.2,386.2,807.3,386.2z
				 M807.4,407c-4.6,0-8.3,1.4-11.1,4.3c-2.8,2.9-4.3,6.2-4.4,10.1h30.5c0-4.3-1.4-7.7-4.3-10.4C815.3,408.3,811.7,407,807.4,407z"
				/>
			<path class="st1" d="M896,388.6h15.5v20.8H896v61.2h-30.2v-61.2h-11.4v-20.8h11.4v-22.9H896V388.6z"/>
			<path class="st1" d="M960.1,388.6h15.5v20.8h-15.5v61.2h-30.2v-61.2h-11.4v-20.8h11.4v-22.9h30.2V388.6z"/>
			<path class="st1" d="M1023.6,386.2c11.9,0,21.9,4,30,12.1c8.1,8.1,12.2,18.4,12.2,30.9c0,3.8-0.2,7.1-0.5,9.7h-56.4
				c0.9,3.7,3,6.8,6.3,9.2c3.4,2.4,7.6,3.6,12.6,3.6c7.5,0,14-2.8,19.5-8.2l13,16.5c-9.6,9-21.5,13.5-35.8,13.5
				c-13.4,0-24.3-4.3-32.7-12.8c-8.4-8.5-12.6-18.9-12.6-31.2c0-12.2,4.1-22.5,12.4-30.8C999.9,390.4,1010.5,386.2,1023.6,386.2z
				 M1023.8,407c-4.6,0-8.3,1.4-11.1,4.3c-2.8,2.9-4.3,6.2-4.4,10.1h30.5c0-4.3-1.4-7.7-4.3-10.4
				C1031.6,408.3,1028.1,407,1023.8,407z"/>
			<path class="st1" d="M1131.9,386.7c8.5,0,15.4,2.6,20.9,7.9c5.5,5.3,8.2,12.2,8.2,20.8v55.2h-30v-46.5c0-3.7-1.1-6.6-3.4-8.7
				c-2.3-2-5.1-3-8.5-3c-3.4,0-6.3,1.1-8.7,3.2c-2.4,2.1-3.6,4.9-3.6,8.3v46.7h-30v-82h28.9v1v9.7c2.5-3.7,6.2-6.8,11.1-9.1
				C1121.7,387.9,1126.8,386.7,1131.9,386.7z"/>
		</g>
	</g>
</g>
</svg>
